<svg width="176" height="28" viewBox="0 0 176 28" fill="none" xmlns="http://www.w3.org/2000/svg">
<path d="M34.203 21.184C33.122 21.184 32.593 20.356 33.076 19.298L39.148 5.843C39.539 4.969 40.114 4.601 40.85 4.601C41.563 4.601 42.138 4.969 42.529 5.843L48.624 19.298C49.107 20.379 48.601 21.184 47.566 21.184C46.715 21.184 46.301 20.77 45.933 19.919L44.783 17.251H36.871L35.744 19.919C35.353 20.816 34.985 21.184 34.203 21.184ZM40.85 7.982H40.804L37.883 14.905H43.771L40.85 7.982ZM54.7222 21.23C52.1692 21.23 50.8812 19.758 50.8812 16.929V6.05C50.8812 5.107 51.3872 4.601 52.3072 4.601C53.2272 4.601 53.7562 5.107 53.7562 6.05V16.791C53.7562 18.194 54.3772 18.861 55.4812 18.861C55.7342 18.861 55.9412 18.838 56.1482 18.815C56.5852 18.769 56.7002 18.999 56.7002 19.873C56.7002 20.655 56.4242 21.069 55.7112 21.161C55.3892 21.207 55.0442 21.23 54.7222 21.23ZM62.281 21.184C61.499 21.184 60.947 20.816 60.625 19.988L57.29 11.478C56.876 10.397 57.359 9.569 58.509 9.569C59.176 9.569 59.567 9.822 59.889 10.719L62.419 17.642L65.018 10.535C65.271 9.868 65.662 9.569 66.329 9.569C66.996 9.569 67.41 9.891 67.64 10.535L70.239 17.711L72.792 10.65C73.091 9.822 73.574 9.569 74.172 9.569C75.276 9.569 75.598 10.489 75.207 11.478L71.895 19.988C71.573 20.793 70.998 21.184 70.239 21.184C69.457 21.184 68.882 20.793 68.583 19.988L66.237 13.755L63.937 19.965C63.638 20.793 63.063 21.184 62.281 21.184ZM81.0208 21.23C78.5828 21.23 76.8118 19.689 76.8118 17.665C76.8118 15.204 78.5598 14.33 83.4358 14.33H84.2408V13.847C84.2408 12.306 83.6198 11.685 82.0328 11.685C81.1358 11.685 80.1008 11.869 78.9738 12.398C77.5018 13.088 76.8808 10.903 78.3068 10.328C79.7098 9.753 81.0438 9.523 82.1248 9.523C85.4138 9.523 86.9778 10.995 86.9778 14.192V19.712C86.9778 20.655 86.4948 21.184 85.6438 21.184C84.7698 21.184 84.2868 20.655 84.2868 19.712V19.206C83.7808 20.471 82.6078 21.23 81.0208 21.23ZM81.6188 19.252C83.1138 19.252 84.2408 18.102 84.2408 16.492V15.986H83.4588C80.5838 15.986 79.6178 16.354 79.6178 17.527C79.6178 18.539 80.3538 19.252 81.6188 19.252ZM92.6356 25.324C91.6006 25.324 91.1406 24.427 91.5776 23.438L92.8886 20.54L88.9556 11.478C88.5186 10.466 88.9556 9.569 90.2206 9.569C90.9106 9.569 91.3016 9.845 91.6466 10.719L94.4066 17.619L97.2356 10.696C97.5806 9.845 97.9716 9.569 98.7536 9.569C99.7426 9.569 100.203 10.466 99.7656 11.455L94.1766 24.22C93.7856 25.071 93.3716 25.324 92.6356 25.324ZM105.782 21.23C104.448 21.23 102.861 20.977 101.711 20.31C100.446 19.574 101.228 17.826 102.493 18.424C103.712 18.999 104.77 19.206 105.805 19.206C107.277 19.206 107.99 18.654 107.99 17.826C107.99 17.136 107.507 16.768 106.564 16.584L104.264 16.147C102.355 15.779 101.343 14.744 101.343 13.111C101.343 10.926 103.298 9.523 106.127 9.523C107.484 9.523 108.634 9.799 109.738 10.42C110.888 11.064 110.06 12.881 108.772 12.237C107.806 11.754 106.932 11.547 106.15 11.547C104.655 11.547 103.942 12.122 103.942 12.973C103.942 13.617 104.356 14.054 105.253 14.215L107.553 14.652C109.531 15.02 110.589 15.986 110.589 17.642C110.589 19.896 108.68 21.23 105.782 21.23ZM113.333 21.184C112.252 21.184 111.723 20.356 112.206 19.298L118.278 5.843C118.669 4.969 119.244 4.601 119.98 4.601C120.693 4.601 121.268 4.969 121.659 5.843L127.754 19.298C128.237 20.379 127.731 21.184 126.696 21.184C125.845 21.184 125.431 20.77 125.063 19.919L123.913 17.251H116.001L114.874 19.919C114.483 20.816 114.115 21.184 113.333 21.184ZM119.98 7.982H119.934L117.013 14.905H122.901L119.98 7.982ZM131.437 25.324C130.517 25.324 130.011 24.818 130.011 23.875V11.018C130.011 10.075 130.517 9.569 131.414 9.569C132.334 9.569 132.84 10.075 132.84 11.018V11.501C133.484 10.282 134.864 9.523 136.497 9.523C139.441 9.523 141.442 11.754 141.442 15.365C141.442 18.976 139.464 21.23 136.497 21.23C134.91 21.23 133.553 20.494 132.886 19.321V23.875C132.886 24.818 132.357 25.324 131.437 25.324ZM135.692 19.045C137.394 19.045 138.544 17.803 138.544 15.365C138.544 12.927 137.394 11.708 135.692 11.708C133.967 11.708 132.84 12.927 132.84 15.365C132.84 17.803 133.967 19.045 135.692 19.045ZM145.228 25.324C144.308 25.324 143.802 24.818 143.802 23.875V11.018C143.802 10.075 144.308 9.569 145.205 9.569C146.125 9.569 146.631 10.075 146.631 11.018V11.501C147.275 10.282 148.655 9.523 150.288 9.523C153.232 9.523 155.233 11.754 155.233 15.365C155.233 18.976 153.255 21.23 150.288 21.23C148.701 21.23 147.344 20.494 146.677 19.321V23.875C146.677 24.818 146.148 25.324 145.228 25.324ZM149.483 19.045C151.185 19.045 152.335 17.803 152.335 15.365C152.335 12.927 151.185 11.708 149.483 11.708C147.758 11.708 146.631 12.927 146.631 15.365C146.631 17.803 147.758 19.045 149.483 19.045ZM161.434 21.23C158.881 21.23 157.593 19.758 157.593 16.929V6.05C157.593 5.107 158.099 4.601 159.019 4.601C159.939 4.601 160.468 5.107 160.468 6.05V16.791C160.468 18.194 161.089 18.861 162.193 18.861C162.446 18.861 162.653 18.838 162.86 18.815C163.297 18.769 163.412 18.999 163.412 19.873C163.412 20.655 163.136 21.069 162.423 21.161C162.101 21.207 161.756 21.23 161.434 21.23ZM167.498 25.324C166.463 25.324 166.003 24.427 166.44 23.438L167.751 20.54L163.818 11.478C163.381 10.466 163.818 9.569 165.083 9.569C165.773 9.569 166.164 9.845 166.509 10.719L169.269 17.619L172.098 10.696C172.443 9.845 172.834 9.569 173.616 9.569C174.605 9.569 175.065 10.466 174.628 11.455L169.039 24.22C168.648 25.071 168.234 25.324 167.498 25.324Z" fill="#6300B3"/>
<path d="M12.3195 12.7582H12.3253M14.6128 9.17214V7.97679C14.6128 7.65976 14.492 7.35572 14.277 7.13154C14.0619 6.90737 13.7703 6.78143 13.4662 6.78143H11.1729C10.8688 6.78143 10.5772 6.90737 10.3621 7.13154C10.1471 7.35572 10.0263 7.65976 10.0263 7.97679V9.17214M18.0527 13.3559C16.3515 14.5267 14.358 15.1509 12.3195 15.1509C10.2811 15.1509 8.28756 14.5267 6.58643 13.3559M7.73305 9.17214H16.906C17.5393 9.17214 18.0527 9.70732 18.0527 10.3675V16.3443C18.0527 17.0044 17.5393 17.5396 16.906 17.5396H7.73305C7.09979 17.5396 6.58643 17.0044 6.58643 16.3443V10.3675C6.58643 9.70732 7.09979 9.17214 7.73305 9.17214Z" stroke="#6300B3" stroke-width="1.00962" stroke-linecap="round" stroke-linejoin="round"/>
<path d="M24.9325 25.9071L19.4542 20.196M22.3844 12.6254C22.3844 18.4936 17.8212 23.2508 12.1922 23.2508C6.56321 23.2508 2 18.4936 2 12.6254C2 6.75714 6.56321 2 12.1922 2C17.8212 2 22.3844 6.75714 22.3844 12.6254Z" stroke="#6300B3" stroke-width="2.39071" stroke-linecap="round" stroke-linejoin="round"/>
</svg>
